# xmcd
#
# Track frame offsets:
#	150
#	15797
#	29492
#	46387
#	58970
#	70932
#	82895
#	96890
#	112622
#	127465
#	141082
#	154785
#
# Disc length: 2241 seconds
#
# Revision: 5
# Processed by: cddbd v1.5.2PL0 Copyright (c) Steve Scherf et al.
# Submitted via: audiograbber 1.83.01
#
DISCID=9b08bf0c
DTITLE=Diverse - Sierra Madre - 12 volkstümliche Schlager
DYEAR=1992
DGENRE=Volksmusik
TTITLE0=Sierre Madre - Die Steintaler mit Bettina
TTITLE1=Bella Rosa - Walter Oberbrandacher
TTITLE2=Mädchen meiner Träume - Alpensextett Terenten
TTITLE3=Dirndl, sag tuat ma des - Thannhausner Musikanten
TTITLE4=Liebesblumen - Eva-Maria and Michael
TTITLE5=I brauch di sooo - Duo Herzklang
TTITLE6=Manuela - Wadlbeisser
TTITLE7=Alpenrose - Sepp und die Steigerwälder Musikanten
TTITLE8=Drei Jahre später - Original Bergvagabunden
TTITLE9=Abendrot - Rieseferner Buam
TTITLE10=Ein Edelweiss - Thurland Echo
TTITLE11=Dua net weinen - Allgäuer Brass Company
EXTD=
EXTT0=
EXTT1=
EXTT2=
EXTT3=
EXTT4=
EXTT5=
EXTT6=
EXTT7=
EXTT8=
EXTT9=
EXTT10=
EXTT11=
PLAYORDER=
